<?xml version="1.0" encoding="UTF-8" standalone="no"?><svg xmlns="http://www.w3.org/2000/svg" xmlns:xlink="http://www.w3.org/1999/xlink" contentScriptType="application/ecmascript" contentStyleType="text/css" height="264px" preserveAspectRatio="none" style="width:149px;height:264px;" version="1.1" viewBox="0 0 149 264" width="149px" zoomAndPan="magnify"><defs><filter height="300%" id="fkrg9rz" width="300%" x="-1" y="-1"><feGaussianBlur result="blurOut" stdDeviation="2.0"/><feColorMatrix in="blurOut" result="blurOut2" type="matrix" values="0 0 0 0 0 0 0 0 0 0 0 0 0 0 0 0 0 0 .4 0"/><feOffset dx="4.0" dy="4.0" in="blurOut2" result="blurOut3"/><feBlend in="SourceGraphic" in2="blurOut3" mode="normal"/></filter></defs><g><!--cluster Concepts--><polygon fill="#FFFFFF" filter="url(#fkrg9rz)" points="22,24,94,24,101,46.4883,142,46.4883,142,257,22,257,22,24" style="stroke: #000000; stroke-width: 2.0;"/><line style="stroke: #000000; stroke-width: 2.0;" x1="22" x2="101" y1="46.4883" y2="46.4883"/><text fill="#000000" font-family="sans-serif" font-size="14" font-weight="bold" lengthAdjust="spacingAndGlyphs" textLength="66" x="26" y="39.5352">Concepts</text><!--class Concepts.TodoItem--><rect fill="#FEFECE" filter="url(#fkrg9rz)" height="60.9551" style="stroke: #A80036; stroke-width: 1.5;" width="87" x="38.5" y="59"/><ellipse cx="53.5" cy="75" fill="#ADD1B2" rx="11" ry="11" style="stroke: #A80036; stroke-width: 1.0;"/><path d="M56.4731,80.6431 Q55.8921,80.9419 55.2529,81.0913 Q54.6138,81.2407 53.9082,81.2407 Q51.4014,81.2407 50.0815,79.5889 Q48.7617,77.937 48.7617,74.8159 Q48.7617,71.6865 50.0815,70.0347 Q51.4014,68.3828 53.9082,68.3828 Q54.6138,68.3828 55.2612,68.5322 Q55.9087,68.6816 56.4731,68.9805 L56.4731,71.7031 Q55.8423,71.1221 55.2488,70.8523 Q54.6553,70.5825 54.0244,70.5825 Q52.6797,70.5825 51.9949,71.6492 Q51.3101,72.7158 51.3101,74.8159 Q51.3101,76.9077 51.9949,77.9744 Q52.6797,79.041 54.0244,79.041 Q54.6553,79.041 55.2488,78.7712 Q55.8423,78.5015 56.4731,77.9204 Z "/><text fill="#000000" font-family="sans-serif" font-size="12" lengthAdjust="spacingAndGlyphs" textLength="55" x="67.5" y="79.5352">TodoItem</text><line style="stroke: #A80036; stroke-width: 1.5;" x1="39.5" x2="124.5" y1="91" y2="91"/><text fill="#000000" font-family="sans-serif" font-size="11" lengthAdjust="spacingAndGlyphs" textLength="63" x="44.5" y="105.6348">title (string)</text><line style="stroke: #A80036; stroke-width: 1.5;" x1="39.5" x2="124.5" y1="111.9551" y2="111.9551"/><!--class Concepts.Tag--><rect fill="#FEFECE" filter="url(#fkrg9rz)" height="60.9551" style="stroke: #A80036; stroke-width: 1.5;" width="75" x="44.5" y="180"/><ellipse cx="68.95" cy="196" fill="#ADD1B2" rx="11" ry="11" style="stroke: #A80036; stroke-width: 1.0;"/><path d="M71.9231,201.6431 Q71.3421,201.9419 70.7029,202.0913 Q70.0638,202.2407 69.3582,202.2407 Q66.8514,202.2407 65.5315,200.5889 Q64.2117,198.937 64.2117,195.8159 Q64.2117,192.6865 65.5315,191.0347 Q66.8514,189.3828 69.3582,189.3828 Q70.0638,189.3828 70.7112,189.5322 Q71.3587,189.6816 71.9231,189.9805 L71.9231,192.7031 Q71.2923,192.1221 70.6988,191.8523 Q70.1053,191.5825 69.4744,191.5825 Q68.1297,191.5825 67.4449,192.6492 Q66.7601,193.7158 66.7601,195.8159 Q66.7601,197.9077 67.4449,198.9744 Q68.1297,200.041 69.4744,200.041 Q70.1053,200.041 70.6988,199.7712 Q71.2923,199.5015 71.9231,198.9204 Z "/><text fill="#000000" font-family="sans-serif" font-size="12" lengthAdjust="spacingAndGlyphs" textLength="22" x="85.05" y="200.5352">Tag</text><line style="stroke: #A80036; stroke-width: 1.5;" x1="45.5" x2="118.5" y1="212" y2="212"/><text fill="#000000" font-family="sans-serif" font-size="11" lengthAdjust="spacingAndGlyphs" textLength="63" x="50.5" y="226.6348">title (string)</text><line style="stroke: #A80036; stroke-width: 1.5;" x1="45.5" x2="118.5" y1="232.9551" y2="232.9551"/><path d="M82,120.0334 C82,136.6565 82,157.3175 82,174.6964 " fill="none" style="stroke: #A80036; stroke-width: 1.0;"/><polygon fill="#A80036" points="82,179.9764,86,170.9764,82,174.9764,78,170.9764,82,179.9764" style="stroke: #A80036; stroke-width: 1.0;"/></g></svg>