<?xml version="1.0" encoding="UTF-8" standalone="no"?><svg xmlns="http://www.w3.org/2000/svg" xmlns:xlink="http://www.w3.org/1999/xlink" contentScriptType="application/ecmascript" contentStyleType="text/css" height="277px" preserveAspectRatio="none" style="width:163px;height:277px;" version="1.1" viewBox="0 0 163 277" width="163px" zoomAndPan="magnify"><defs><filter height="300%" id="fkv688o" width="300%" x="-1" y="-1"><feGaussianBlur result="blurOut" stdDeviation="2.0"/><feColorMatrix in="blurOut" result="blurOut2" type="matrix" values="0 0 0 0 0 0 0 0 0 0 0 0 0 0 0 0 0 0 .4 0"/><feOffset dx="4.0" dy="4.0" in="blurOut2" result="blurOut3"/><feBlend in="SourceGraphic" in2="blurOut3" mode="normal"/></filter></defs><g><!--cluster Concepts--><polygon fill="#FFFFFF" filter="url(#fkv688o)" points="22,24,94,24,101,46.4883,156,46.4883,156,270,22,270,22,24" style="stroke: #000000; stroke-width: 2.0;"/><line style="stroke: #000000; stroke-width: 2.0;" x1="22" x2="101" y1="46.4883" y2="46.4883"/><text fill="#000000" font-family="sans-serif" font-size="14" font-weight="bold" lengthAdjust="spacingAndGlyphs" textLength="66" x="26" y="39.5352">Concepts</text><!--class Concepts.TodoItem--><rect fill="#FEFECE" filter="url(#fkv688o)" height="73.9102" style="stroke: #A80036; stroke-width: 1.5;" width="102" x="38" y="59"/><ellipse cx="59.75" cy="75" fill="#ADD1B2" rx="11" ry="11" style="stroke: #A80036; stroke-width: 1.0;"/><path d="M62.7231,80.6431 Q62.1421,80.9419 61.5029,81.0913 Q60.8638,81.2407 60.1582,81.2407 Q57.6514,81.2407 56.3315,79.5889 Q55.0117,77.937 55.0117,74.8159 Q55.0117,71.6865 56.3315,70.0347 Q57.6514,68.3828 60.1582,68.3828 Q60.8638,68.3828 61.5112,68.5322 Q62.1587,68.6816 62.7231,68.9805 L62.7231,71.7031 Q62.0923,71.1221 61.4988,70.8523 Q60.9053,70.5825 60.2744,70.5825 Q58.9297,70.5825 58.2449,71.6492 Q57.5601,72.7158 57.5601,74.8159 Q57.5601,76.9077 58.2449,77.9744 Q58.9297,79.041 60.2744,79.041 Q60.9053,79.041 61.4988,78.7712 Q62.0923,78.5015 62.7231,77.9204 Z "/><text fill="#000000" font-family="sans-serif" font-size="12" lengthAdjust="spacingAndGlyphs" textLength="55" x="75.25" y="79.5352">TodoItem</text><line style="stroke: #A80036; stroke-width: 1.5;" x1="39" x2="139" y1="91" y2="91"/><text fill="#000000" font-family="sans-serif" font-size="11" lengthAdjust="spacingAndGlyphs" textLength="63" x="44" y="105.6348">title (string)</text><text fill="#000000" font-family="sans-serif" font-size="11" lengthAdjust="spacingAndGlyphs" textLength="90" x="44" y="118.5898">created_at (date)</text><line style="stroke: #A80036; stroke-width: 1.5;" x1="39" x2="139" y1="124.9102" y2="124.9102"/><!--class Concepts.Tag--><rect fill="#FEFECE" filter="url(#fkv688o)" height="60.9551" style="stroke: #A80036; stroke-width: 1.5;" width="75" x="51.5" y="193"/><ellipse cx="75.95" cy="209" fill="#ADD1B2" rx="11" ry="11" style="stroke: #A80036; stroke-width: 1.0;"/><path d="M78.9231,214.6431 Q78.3421,214.9419 77.7029,215.0913 Q77.0638,215.2407 76.3582,215.2407 Q73.8514,215.2407 72.5315,213.5889 Q71.2117,211.937 71.2117,208.8159 Q71.2117,205.6865 72.5315,204.0347 Q73.8514,202.3828 76.3582,202.3828 Q77.0638,202.3828 77.7112,202.5322 Q78.3587,202.6816 78.9231,202.9805 L78.9231,205.7031 Q78.2923,205.1221 77.6988,204.8523 Q77.1053,204.5825 76.4744,204.5825 Q75.1297,204.5825 74.4449,205.6492 Q73.7601,206.7158 73.7601,208.8159 Q73.7601,210.9077 74.4449,211.9744 Q75.1297,213.041 76.4744,213.041 Q77.1053,213.041 77.6988,212.7712 Q78.2923,212.5015 78.9231,211.9204 Z "/><text fill="#000000" font-family="sans-serif" font-size="12" lengthAdjust="spacingAndGlyphs" textLength="22" x="92.05" y="213.5352">Tag</text><line style="stroke: #A80036; stroke-width: 1.5;" x1="52.5" x2="125.5" y1="225" y2="225"/><text fill="#000000" font-family="sans-serif" font-size="11" lengthAdjust="spacingAndGlyphs" textLength="63" x="57.5" y="239.6348">title (string)</text><line style="stroke: #A80036; stroke-width: 1.5;" x1="52.5" x2="125.5" y1="245.9551" y2="245.9551"/><path d="M89,133.221 C89,150.4069 89,170.7234 89,187.7273 " fill="none" style="stroke: #A80036; stroke-width: 1.0;"/><polygon fill="#A80036" points="89,192.8909,93,183.8909,89,187.8909,85,183.8909,89,192.8909" style="stroke: #A80036; stroke-width: 1.0;"/></g></svg>